{"title":"Tropic Thunder (2008)[BDRip 1080p AC3][AtaraxiaPrime]","uid":15177502,"size":12674579112,"categoryP":"video","categoryS":"hd___movies","magnet":"?xt=urn:btih:750b9681ed80630e98d797caf77b08fc13ebd291&amp;dn=Tropic+Thunder+%282008%29%5BBDRip+1080p+AC3%5D%5BAtaraxiaPrime%5D&amp;tr=udp%3A%2F%2Ftracker.leechers-paradise.org%3A6969&amp;tr=udp%3A%2F%2Fzer0day.ch%3A1337&amp;tr=udp%3A%2F%2Fopen.demonii.com%3A1337&amp;tr=udp%3A%2F%2Ftracker.coppersurfer.tk%3A6969&amp;tr=udp%3A%2F%2Fexodus.desync.com%3A6969","seeders":3,"leechers":1,"uploader":"AtaraxiaPrime","files":3,"time":1467429441,"description":"TROPIC THUNDER (BLU RAY)\r\n----------------------------------------\r\n\r\nThrough a series of freak occurrences, a group of actors shooting a big-budget war movie are forced to become the soldiers they are portraying.\r\n\r\nMEDIA INFO\r\n----------------------------------------\r\n\r\nGeneral\r\nComplete name : Tropic Thunder (2008).mkv\r\nFormat : Matroska\r\nFormat version : Version 2\r\nFile size : 11.8 GiB\r\nDuration : 2h 1mn\r\nOverall bit rate : 13.9 Mbps\r\nEncoded date : UTC 2016-05-17T01:39:22Z\r\nWriting application : HandBrake 0.10.5 2016021100\r\nWriting library : Lavf55.12.0 / Lavf55.12.0\r\n\r\nVideo\r\nID : 1\r\nFormat : AVC\r\nFormat/Info : Advanced Video Codec\r\nFormat profile :   \r\nFormat settings, CABAC : Yes\r\nFormat settings, ReFrames : 16 frames\r\nCodec ID : V_MPEG4/ISO/AVC\r\nDuration : 2h 1mn\r\nBit rate : 13.0 Mbps\r\nWidth : 1 920 pixels\r\nHeight : 822 pixels\r\nDisplay aspect ratio : 2.35:1\r\nFrame rate mode : Constant\r\nFrame rate : 23.976 (24000/1001) fps\r\nColor space : YUV\r\nChroma subsampling : 4:2:0\r\nBit depth : 8 bits\r\nScan type : Progressive\r\nBits/(Pixel*Frame) : 0.344\r\nStream size : 11.0 GiB (93%)\r\nWriting library : x264 core 142 r2479 dd79a61\r\nEncoding settings : cabac=1 / ref=16 / deblock=1:-2:-2 / analyse=0x3:0x133 / me=umh / subme=10 / psy=1 / psy_rd=1.00:0.25 / mixed_ref=1 / me_range=24 / chroma_me=1 / trellis=2 / 8x8dct=1 / cqm=0 / deadzone=6,6 / fast_pskip=1 / chroma_qp_offset=-4 / threads=12 / lookahead_threads=2 / sliced_threads=0 / nr=0 / decimate=0 / interlaced=0 / bluray_compat=0 / constrained_intra=0 / bframes=8 / b_pyramid=2 / b_adapt=2 / b_bias=0 / direct=3 / weightb=1 / open_gop=0 / weightp=2 / keyint=240 / keyint_min=24 / scenecut=40 / intra_refresh=0 / rc_lookahead=60 / rc=crf / mbtree=1 / crf=20.0 / qcomp=0.80 / qpmin=0 / qpmax=69 / qpstep=4 / vbv_maxrate=300000 / vbv_bufsize=300000 / crf_max=0.0 / nal_hrd=none / filler=0 / ip_ratio=1.10 / aq=1:0.50\r\nDefault : Yes\r\nForced : No\r\nColor range : Limited\r\nColor primaries : BT.709\r\nTransfer characteristics : BT.709\r\nMatrix coefficients : BT.709\r\n\r\nAudio\r\nID : 2\r\nFormat : AC-3\r\nFormat/Info : Audio Coding 3\r\nMode extension : CM (complete main)\r\nFormat settings, Endianness : Big\r\nCodec ID : A_AC3\r\nDuration : 2h 1mn\r\nBit rate mode : Constant\r\nBit rate : 640 Kbps\r\nChannel(s) : 6 channels\r\nChannel positions : Front: L C R, Side: L R, LFE\r\nSampling rate : 48.0 KHz\r\nFrame rate : 31.250 fps (1536 spf)\r\nCompression mode : Lossy\r\nStream size : 555 MiB (5%)\r\nTitle : Surround\r\nLanguage : English\r\nDefault : Yes\r\nForced : No\r\n\r\nText\r\nID : 3\r\nFormat : PGS\r\nCodec ID : S_HDMV/PGS\r\nCodec ID/Info : Picture based subtitle format used on BDs/HD-DVDs\r\nLanguage : English\r\nDefault : No\r\nForced : No\r\n\r\nSCREENSHOTS\r\n----------------------------------------\r\n \nhttps://www.anony.ws/i/2016/06/22/001.png \nhttps://www.anony.ws/i/2016/06/22/002.png \nhttps://www.anony.ws/i/2016/06/22/003.png \nhttps://www.anony.ws/i/2016/06/22/004.png \nhttps://www.anony.ws/i/2016/06/22/005.png \nhttps://www.anony.ws/i/2016/06/22/006.png\r\n\r\n----------------------------------------\r\n\r\nAtaraxiaPrime","torrent":{"xt":"urn:btih:750b9681ed80630e98d797caf77b08fc13ebd291","amp;dn":"Tropic+Thunder+%282008%29%5BBDRip+1080p+AC3%5D%5BAtaraxiaPrime%5D","amp;tr":["udp%3A%2F%2Ftracker.leechers-paradise.org%3A6969","udp%3A%2F%2Fzer0day.ch%3A1337","udp%3A%2F%2Fopen.demonii.com%3A1337","udp%3A%2F%2Ftracker.coppersurfer.tk%3A6969","udp%3A%2F%2Fexodus.desync.com%3A6969"],"infoHash":"750b9681ed80630e98d797caf77b08fc13ebd291","infoHashBuffer":{"type":"Buffer","data":[117,11,150,129,237,128,99,14,152,215,151,202,247,123,8,252,19,235,210,145]},"announce":[],"urlList":[]}}